<svg xmlns="http://www.w3.org/2000/svg" xmlns:xlink="http://www.w3.org/1999/xlink" width="256" height="263" preserveAspectRatio="xMidYMid" version="1.1" viewBox="0 0 256 263"><title>supabase</title><defs><linearGradient id="supabase-linearGradient-1" x1="20.862%" x2="63.426%" y1="20.687%" y2="44.071%"><stop offset="0%" stop-color="#249361"/><stop offset="100%" stop-color="#3ECF8E"/></linearGradient><linearGradient id="supabase-linearGradient-2" x1="1.991%" x2="21.403%" y1="-13.158%" y2="34.708%"><stop offset="0%" stop-color="#000"/><stop offset="100%" stop-color="#000" stop-opacity="0"/></linearGradient></defs><g><path fill="url(#supabase-linearGradient-1)" d="M149.601512,258.578826 C142.884085,267.038157 129.263882,262.403261 129.102024,251.601817 L126.735244,93.6176533 L232.963622,93.6176533 C252.204429,93.6176533 262.935398,115.840956 250.971119,130.909887 L149.601512,258.578826 Z"/><path fill="url(#supabase-linearGradient-2)" fill-opacity=".2" d="M149.601512,258.578826 C142.884085,267.038157 129.263882,262.403261 129.102024,251.601817 L126.735244,93.6176533 L232.963622,93.6176533 C252.204429,93.6176533 262.935398,115.840956 250.971119,130.909887 L149.601512,258.578826 Z"/><path fill="#3ECF8E" d="M106.399023,4.36908575 C113.11645,-4.09118439 126.736889,0.544432392 126.898746,11.3460249 L127.935901,169.329953 L23.0369844,169.329953 C3.79559007,169.329953 -6.93568494,147.106651 5.02918175,132.037719 L106.399023,4.36908575 Z"/></g></svg>