<svg xmlns="http://www.w3.org/2000/svg" version="1.1" xmlns:xlink="http://www.w3.org/1999/xlink" xmlns:svgjs="http://svgjs.dev/svgjs" viewBox="0 0 800 800" opacity="0.71" width="800" height="800"><g stroke-width="0.5" stroke="#374151" fill="none"><rect width="160" height="160" x="0" y="0"></rect><rect width="160" height="160" x="160" y="0"></rect><rect width="160" height="160" x="320" y="0"></rect><rect width="160" height="160" x="480" y="0"></rect><rect width="160" height="160" x="640" y="0"></rect><rect width="160" height="160" x="800" y="0"></rect><rect width="160" height="160" x="0" y="160"></rect><rect width="160" height="160" x="160" y="160"></rect><rect width="160" height="160" x="320" y="160"></rect><rect width="160" height="160" x="480" y="160"></rect><rect width="160" height="160" x="640" y="160"></rect><rect width="160" height="160" x="800" y="160"></rect><rect width="160" height="160" x="0" y="320"></rect><rect width="160" height="160" x="160" y="320"></rect><rect width="160" height="160" x="320" y="320"></rect><rect width="160" height="160" x="480" y="320"></rect><rect width="160" height="160" x="640" y="320"></rect><rect width="160" height="160" x="800" y="320"></rect><rect width="160" height="160" x="0" y="480"></rect><rect width="160" height="160" x="160" y="480"></rect><rect width="160" height="160" x="320" y="480"></rect><rect width="160" height="160" x="480" y="480"></rect><rect width="160" height="160" x="640" y="480"></rect><rect width="160" height="160" x="800" y="480"></rect><rect width="160" height="160" x="0" y="640"></rect><rect width="160" height="160" x="160" y="640"></rect><rect width="160" height="160" x="320" y="640"></rect><rect width="160" height="160" x="480" y="640"></rect><rect width="160" height="160" x="640" y="640"></rect><rect width="160" height="160" x="800" y="640"></rect><rect width="160" height="160" x="0" y="800"></rect><rect width="160" height="160" x="160" y="800"></rect><rect width="160" height="160" x="320" y="800"></rect><rect width="160" height="160" x="480" y="800"></rect><rect width="160" height="160" x="640" y="800"></rect><rect width="160" height="160" x="800" y="800"></rect></g></svg>