<svg width="20" height="20" viewBox="0 0 20 20" fill="none" xmlns="http://www.w3.org/2000/svg">
<rect width="20" height="20" rx="3" fill="#FFC93F"/>
<path d="M8.70329 5.81663C9.07012 5.07346 10.1299 5.07346 10.4967 5.81663L11.3452 7.53549C11.4907 7.83034 11.7719 8.0348 12.0972 8.08235L13.9962 8.35992C14.8161 8.47976 15.1429 9.4876 14.5493 10.0658L13.1768 11.4026C12.9409 11.6323 12.8332 11.9635 12.8889 12.288L13.2126 14.1754C13.3527 14.9924 12.4952 15.6154 11.7616 15.2295L10.0654 14.3376C9.77407 14.1843 9.42593 14.1843 9.13455 14.3376L7.43843 15.2295C6.7048 15.6154 5.84725 14.9924 5.98737 14.1754L6.31108 12.288C6.36674 11.9635 6.25908 11.6323 6.02321 11.4026L4.65068 10.0658C4.05708 9.4876 4.38387 8.47976 5.20378 8.35992L7.10276 8.08235C7.42812 8.0348 7.7093 7.83034 7.85484 7.53549L8.70329 5.81663Z" fill="white"/>
</svg>
