<svg xmlns="http://www.w3.org/2000/svg" width="256" height="279" preserveAspectRatio="xMidYMid" version="1.1" viewBox="0 0 256 279"><title>Windi CSS</title><defs><linearGradient id="windiLinearGradient-1" x1="16.639%" x2="137.275%" y1="36.186%" y2="175.371%"><stop offset="7.822%" stop-color="#54C8F1"/><stop offset="57.292%" stop-color="#41A2EF"/><stop offset="100%" stop-color="#3386EE"/></linearGradient><linearGradient id="windiLinearGradient-2" x1="-22.099%" x2="91.451%" y1="-49.621%" y2="73.695%"><stop offset="7.822%" stop-color="#54C8F1"/><stop offset="57.292%" stop-color="#41A2EF"/><stop offset="100%" stop-color="#3386EE"/></linearGradient><linearGradient id="windiLinearGradient-3" x1="8.696%" x2="71.739%" y1="37.461%" y2="80.271%"><stop offset="7.822%" stop-color="#54C8F1"/><stop offset="57.292%" stop-color="#41A2EF"/><stop offset="100%" stop-color="#3386EE"/></linearGradient><linearGradient id="windiLinearGradient-4" x1="60.744%" x2="501.135%" y1="-308.636%" y2="225.788%"><stop offset="7.822%" stop-color="#54C8F1"/><stop offset="57.292%" stop-color="#41A2EF"/><stop offset="100%" stop-color="#3386EE"/></linearGradient></defs><g><path fill="url(#windiLinearGradient-1)" d="M133.784487,48.9218783 C133.784487,21.9447652 111.839443,0 84.8626087,0 C56.4321391,0 39.4354087,21.3158957 39.4354087,41.9328 L67.3906087,41.9328 C67.3906087,36.1321739 72.813913,27.9552 84.8626087,27.9552 C96.4221217,27.9552 105.829009,37.3623652 105.829009,48.9218783 C105.829009,60.4813913 97.3913043,69.8882783 76.1135304,69.8882783 L0,69.8882783 L0,97.8434783 L76.1135304,97.8434783 C112.025043,97.8434783 133.784487,75.898713 133.784487,48.9218783 Z M133.784487,48.9218783 C133.784487,21.9447652 111.839443,0 84.8626087,0 C56.4321391,0 39.4354087,21.3158957 39.4354087,41.9328 L67.3906087,41.9328 C67.3906087,36.1321739 72.813913,27.9552 84.8626087,27.9552 C96.4221217,27.9552 105.829009,37.3623652 105.829009,48.9218783 C105.829009,60.4813913 97.3913043,69.8882783 76.1135304,69.8882783 L0,69.8882783 L0,97.8434783 L76.1135304,97.8434783 C112.025043,97.8434783 133.784487,75.898713 133.784487,48.9218783 Z"/><path fill="url(#windiLinearGradient-2)" d="M195.802991,229.338991 C195.802991,256.317217 173.857948,278.26087 146.881113,278.26087 C118.450643,278.26087 101.453635,256.946087 101.453635,236.32807 L129.409113,236.32807 C129.409113,242.128696 134.832417,250.306783 146.881113,250.306783 C158.440626,250.306783 167.847513,240.898783 167.847513,229.338991 C167.847513,217.779478 157.217391,208.372591 138.132035,208.372591 L53.6706783,208.372591 L53.6706783,180.417391 L138.132035,180.417391 C174.043548,180.417391 195.802991,202.362157 195.802991,229.338991 Z M195.802991,229.338991 C195.802991,256.317217 173.857948,278.26087 146.881113,278.26087 C118.450643,278.26087 101.453635,256.946087 101.453635,236.32807 L129.409113,236.32807 C129.409113,242.128696 134.832417,250.306783 146.881113,250.306783 C158.440626,250.306783 167.847513,240.898783 167.847513,229.338991 C167.847513,217.779478 157.217391,208.372591 138.132035,208.372591 L53.6706783,208.372591 L53.6706783,180.417391 L138.132035,180.417391 C174.043548,180.417391 195.802991,202.362157 195.802991,229.338991 Z"/><path fill="url(#windiLinearGradient-3)" d="M203.130435,43.1304348 C172.295791,43.1304348 150.544696,66.5792 150.544696,97.4138435 L175.304348,97.4138435 C175.304348,82.0869565 186.434783,70.9565217 203.130435,70.9565217 C219.826087,70.9565217 228.173913,82.0869565 228.173913,97.4138435 C228.173913,112.74073 217.331757,125.369043 187.826087,125.369043 L0,125.369043 L0,153.324522 L192,153.324522 C235.695304,153.324522 256,125.23993 256,97.4138435 C256,66.5792 235.130435,43.1304348 203.130435,43.1304348 Z"/><polygon fill="url(#windiLinearGradient-4)" points="36.647 180.417 0 180.417 0 208.607 36.647 208.607"/></g></svg>